<svg width="170" height="130" viewBox="0 0 170 130" fill="none" xmlns="http://www.w3.org/2000/svg">
<g id="Group 44" opacity="0.8">
<circle id="Ellipse 16" cx="5" cy="5" r="5" fill="#0193DC"/>
<circle id="Ellipse 24" cx="5" cy="85" r="5" fill="#0193DC"/>
<circle id="Ellipse 32" cx="165" cy="5" r="5" fill="#0193DC"/>
<circle id="Ellipse 34" cx="165" cy="85" r="5" fill="#0193DC"/>
<circle id="Ellipse 20" cx="5" cy="45" r="5" fill="#0193DC"/>
<circle id="Ellipse 25" cx="5" cy="125" r="5" fill="#0193DC"/>
<circle id="Ellipse 33" cx="165" cy="45" r="5" fill="#0193DC"/>
<circle id="Ellipse 35" cx="165" cy="125" r="5" fill="#0193DC"/>
<circle id="Ellipse 18" cx="85" cy="5" r="5" fill="#0193DC"/>
<circle id="Ellipse 26" cx="85" cy="85" r="5" fill="#0193DC"/>
<circle id="Ellipse 21" cx="85" cy="45" r="5" fill="#0193DC"/>
<circle id="Ellipse 27" cx="85" cy="125" r="5" fill="#0193DC"/>
<circle id="Ellipse 17" cx="45" cy="5" r="5" fill="#0193DC"/>
<circle id="Ellipse 28" cx="45" cy="85" r="5" fill="#0193DC"/>
<circle id="Ellipse 22" cx="45" cy="45" r="5" fill="#0193DC"/>
<circle id="Ellipse 29" cx="45" cy="125" r="5" fill="#0193DC"/>
<circle id="Ellipse 19" cx="125" cy="5" r="5" fill="#0193DC"/>
<circle id="Ellipse 30" cx="125" cy="85" r="5" fill="#0193DC"/>
<circle id="Ellipse 23" cx="125" cy="45" r="5" fill="#0193DC"/>
<circle id="Ellipse 31" cx="125" cy="125" r="5" fill="#0193DC"/>
</g>
</svg>
